<?xml version="1.0" encoding="utf-8"?>
<!-- Generator: Adobe Illustrator 27.3.1, SVG Export Plug-In . SVG Version: 6.00 Build 0)  -->
<svg version="1.1" id="Layer_1" xmlns="http://www.w3.org/2000/svg" xmlns:xlink="http://www.w3.org/1999/xlink" x="0px" y="0px"
	 viewBox="0 0 100 100" style="enable-background:new 0 0 100 100;" xml:space="preserve">
<style type="text/css">
	.st0{fill:#084368;}
</style>
<g>
	<path class="st0" d="M92.3,11.5c0-0.1,0.1-0.1,0.1-0.1c-0.1,0-0.3,0-0.4-0.1c-0.5-0.1-1.3-0.3-2.4-0.3H10.4c-1,0-1.8,0.2-2.3,0.3
		c-0.2,0-0.4,0.1-0.5,0.1c0,0,0.1,0,0.1,0H7v71.3c0,4.2,1.5,6.2,4.7,6.2h75c1.9,0,6.3-0.6,6.3-6.2V11.5H92.3z M25.9,76.6v6.8H12.5
		v-6.8H25.9z M30.1,83.5v-6.8h17.1v6.8H30.1z M51.3,83.4v-6.8h12.8v6.8H51.3z M87.5,76.6v6.8H68.3v-6.8H87.5z M12.5,24.8V18h16.3
		v6.8H12.5z M34.4,24.8V18h11.3v6.8H34.4z M51.3,24.8V18h12.8v6.8H51.3z M69.7,24.8V18h17.2v6.8H69.7z M87.5,30.4V71H12.5V30.4H87.5
		z"/>
	<path class="st0" d="M47.2,62.7l0.6,0.6c0.6,0.6,1.4,0.9,2.1,0.9c0.7,0,1.4-0.3,1.9-0.8c2.6-2.5,5.9-5.6,9-8.8
		c1.5-1.6,2.3-3.6,2.3-6.1c-0.1-3.1-1.8-5.9-4.5-7.4c-2.6-1.4-5.5-1.4-7.9,0c-0.3,0.2-0.8,0.1-1.2,0c-0.4-0.1-0.9-0.2-1.3-0.4
		c-0.8-0.3-1.6-0.6-2.4-0.6c-0.1,0-0.1,0-0.2,0c-0.1,0-0.2,0-0.2,0c-3.3,0-6.3,2-7.7,5.2c-1.4,3.2-0.8,6.9,1.7,9.4
		C42,57.5,44.7,60.2,47.2,62.7z M43.2,46.6c0.6-0.7,1.3-1,2.1-1c0.6,0,1.3,0.2,2,0.7c0.2,0.1,0.3,0.2,0.5,0.4c1.6,1.5,2.8,1.5,4.4,0
		c1.5-1.3,3-1.4,4.3-0.3c1.3,1.1,1.4,3,0.3,4.5c-0.4,0.5-0.8,1-1.3,1.4l-0.2,0.2c-1.2,1.2-2.4,2.3-3.6,3.5L50,57.7l-2.2-2.2
		c-1.6-1.6-3.1-3-4.5-4.6C42.1,49.7,42.1,47.9,43.2,46.6z"/>
</g>
</svg>
