<?xml version="1.0" encoding="utf-8"?>
<!-- Generator: Adobe Illustrator 27.3.1, SVG Export Plug-In . SVG Version: 6.00 Build 0)  -->
<svg version="1.1" id="Layer_1" xmlns="http://www.w3.org/2000/svg" xmlns:xlink="http://www.w3.org/1999/xlink" x="0px" y="0px"
	 viewBox="0 0 100 100" style="enable-background:new 0 0 100 100;" xml:space="preserve">
<style type="text/css">
	.st0{fill:#084368;}
</style>
<g>
	<path class="st0" d="M93,4.4H7c-3.4,0-5.6,2.1-5.6,5.5v80.1c0,3.4,2.1,5.5,5.6,5.5h82.9c8,0,8.7-5.3,8.7-7V10
		C98.6,6.5,96.5,4.4,93,4.4z M90.8,38.1v49.7H9.2V38.1H90.8z M9.2,30.2V12.2h81.6v18.1H9.2z"/>
	<path class="st0" d="M41.4,18.4c-6.6,0-13.3,0-19.9,0c-1.3,0-2.1,0.5-2.5,0.9c-0.5,0.5-0.8,1.2-0.8,2c0,1.7,1.3,2.8,3.3,2.8
		c2.3,0,4.7,0,7,0l2.8,0l2.9,0c1,0,1.9,0,2.9,0c1.5,0,2.9,0,4.4,0c1.9,0,3.2-1.1,3.2-2.8c0-0.8-0.2-1.5-0.8-2
		C43.3,18.7,42.4,18.4,41.4,18.4z"/>
	<path class="st0" d="M76.4,15.7c-3-0.1-5.6,2.3-5.7,5.3c-0.1,3,2.2,5.6,5.2,5.8c0.1,0,0.2,0,0.4,0c1.4,0,2.7-0.5,3.7-1.5
		c1.1-1,1.8-2.5,1.8-4C81.8,18.3,79.4,15.8,76.4,15.7z"/>
	<path class="st0" d="M27.5,80.1c6.6,0,14.6,0,22.5,0s15.9,0,22.5,0c2,0,2.9-0.8,2.9-2.8c0-10,0-20,0-30.1c0-2.1-0.8-2.9-2.9-2.9
		l-19,0l-6.1,0l-5.4,0c-4.9,0-9.7,0-14.6,0c-1.9,0-2.8,0.9-2.8,2.8c0,10.1,0,20.1,0,30.2C24.6,79.3,25.4,80.1,27.5,80.1z M68.5,75.4
		H52.6l5.6-6.7c1.7,1.2,4.1,2.7,6.4,4.2C66,73.8,67.4,74.7,68.5,75.4z M70.7,70.7c-2-1.1-5.7-3.6-8.2-5.2c-1.3-0.9-2.3-1.5-2.5-1.6
		c-0.7-0.4-1.4-0.8-2.2-0.8c-0.6,0-1.1,0.2-1.7,0.9c-1.1,1.3-2.1,2.6-3.2,3.9l-1.8,2.1c-0.2,0.2-0.3,0.4-0.5,0.6l-0.1,0.1l-9.8-11.2
		c-0.3-0.4-0.6-0.7-0.9-1.1c-0.4-0.4-0.7-0.8-1.1-1.2c-0.6-0.7-1.3-1.1-2-1.1c-0.7,0-1.4,0.4-2,1.2c-0.9,1.1-1.9,2.3-2.8,3.4
		l-2.2,2.7c-0.1,0.1-0.2,0.2-0.2,0.3V49h41.4V70.7z M29.3,70.9c0,0,0-0.1,0.2-0.3c2.4-2.9,4.9-5.8,7.3-8.7l10.7,12.3
		c-0.6,1-1.2,1.4-2.4,1.3c-2.4,0-4.8-0.1-7.3-0.1c-1.5,0-2.9,0-4.4,0c-1.4,0-2.8,0-4.1,0l0-0.8C29.2,73.4,29.2,72.2,29.3,70.9z"/>
	<path class="st0" d="M51,63.9C51.1,63.9,51.1,63.9,51,63.9c3.1,0,5.6-2.5,5.6-5.5c0-1.5-0.6-2.9-1.6-4c-1.1-1.1-2.5-1.7-3.9-1.7
		c0,0,0,0,0,0c-3.1,0-5.6,2.5-5.6,5.5c0,1.5,0.6,2.9,1.6,4C48.2,63.3,49.6,63.9,51,63.9z M51.1,59.7C51.1,59.7,51.1,59.7,51.1,59.7
		c-0.7,0-1.4-0.6-1.4-1.3c0-0.4,0.1-0.7,0.4-1c0.3-0.3,0.6-0.4,0.9-0.4c0,0,0,0,0,0c0.7,0,1.3,0.7,1.3,1.4
		C52.4,59.1,51.8,59.7,51.1,59.7z"/>
</g>
</svg>
