<?xml version="1.0" encoding="utf-8"?>
<!-- Generator: Adobe Illustrator 27.3.1, SVG Export Plug-In . SVG Version: 6.00 Build 0)  -->
<svg version="1.1" id="Layer_1" xmlns="http://www.w3.org/2000/svg" xmlns:xlink="http://www.w3.org/1999/xlink" x="0px" y="0px"
	 viewBox="0 0 200 200" style="enable-background:new 0 0 200 200;" xml:space="preserve">
<style type="text/css">
	.st0{fill:#15475F;}
</style>
<g>
	<path class="st0" d="M3.1,96.4c0-13.7,4.3-29.9,12.9-44.8c8.7-15,20.5-26.9,35.5-35.6c16-9.3,33.3-13.5,51.8-12.9
		c21.6,0.7,45.9,8.9,65.1,28.4c19.6,19.8,28.9,43.8,28.4,71.7c-1.1,25.4-10.6,47.3-28.4,65.4c-20,19.5-43.9,29-71.8,28.3
		c-16.2-0.4-31.3-4.9-45.3-13c-14.9-8.7-26.7-20.6-35.4-35.5C7.4,133.4,3.1,117.2,3.1,96.4z M195.7,100c0-53.1-43.1-95.7-95.7-95.8
		C47.3,4.3,4.3,47.1,4.3,100c0,52.5,42.5,95.7,95.6,95.8C152.8,195.8,195.7,152.9,195.7,100z"/>
	<path class="st0" d="M100,171.7c-39.7-0.1-71.6-32.3-71.6-71.6c0-39.6,32.1-71.6,71.6-71.6c39.4,0,71.5,31.9,71.6,71.6
		C171.6,139.6,139.6,171.6,100,171.7z M168.9,114.3c0.3-0.8,0.4-1.6,0.5-2.3c0.4-2.4,0.7-4.8,0.8-7.1c0.3-3.5,0.2-7,0-10.5
		c-0.3-3.5-0.8-7-1.6-10.5c-2.9-12.1-8.6-22.8-17.1-31.9c-7.4-8-16.2-13.9-26.4-17.8c-6.9-2.7-14.1-4.1-21.5-4.5
		c-4.1-0.2-8.1-0.1-12.2,0.4c-3.2,0.4-6.4,1-9.5,1.8c-13.7,3.7-25.3,10.8-34.7,21.5C36.9,65.2,31.1,78.9,29.8,94.5
		c-0.2,2.2-0.2,4.4-0.2,6.7c0,3,0.3,5.9,0.7,8.9c0.2,1.3,0.4,2.6,0.7,3.9c0.1,0.5,0.2,0.6,0.7,0.6c0.1,0,0.2,0,0.3,0
		c4.9,0,9.7-0.1,14.6-0.1c5.2,0,10.4-0.1,15.6-0.1c7.4,0,14.7-0.1,22.1-0.2c0.3,0,0.6,0.1,0.8,0.1c0,0.8-0.1,1.4-0.1,2.1
		c0,0.6,0.2,1.2,0.7,1.6c0.3,0.3,0.5,0.6,0.5,1c0.1,1.1,0.1,2.2,0.1,3.3c-0.1,1.6-0.4,3.1-0.3,4.7c0,0.8-0.1,1.7-0.1,2.5
		c0,0.4,0.1,0.8,0,1.1c-0.2,2.5-0.5,5-0.4,7.5c0,0.9,0.1,1.9,0.3,2.8c0.2,0.8,0.2,1.6,0.3,2.3c0.3,1.7,0,3.4,0.7,5c0,0,0,0.1,0,0.1
		c0.1,0.5,0.1,1-0.4,1.4c-0.2,0.1-0.3,0.3-0.5,0.5c-0.6,0.8-0.7,1.7-0.2,2.5c0.9,1.6,2.1,2.3,3.9,2.1c0.4-0.1,0.9-0.2,1.3-0.4
		c0.2,0,0.3-0.1,0.5-0.2c0.1,0.2,0.2,0.4,0.3,0.7c0.4,1,0.9,2,1.7,2.8c0.7,0.7,1.5,1.1,2.5,1.1c0.5,0,1,0,1.5,0
		c2.5,0,4.9-0.1,7.2-1.2c0.6-0.3,1-0.6,1.3-1.2c0.4-0.8,0.6-1.7,0.6-2.6c0.1-1.9-0.1-3.8-0.6-5.7c-0.2-0.7-0.2-1.3-0.1-2
		c0.1-0.6,0.3-1.1,0.4-1.7c0.5-2.6,1-5.2,1.4-7.7c0.2-1.3,0.5-2.7,0.8-4c0.2-1.4,0.4-2.8,0.5-4.2c0.1-0.8,0.4-1.4,1-1.9
		c1.1-1,2.5-1.6,3.8-2.1c0.2-0.1,0.4-0.1,0.7-0.2c0-3.3,0.1-6.6,0.1-10C132.9,114.3,150.9,114.4,168.9,114.3z"/>
	<path class="st0" d="M78.3,175.5c1.5,0.4,2.8,0.7,4.1,1.1c1.3,0.4,2.6,0.6,4.1,0.8c-0.1-0.2-0.1-0.3-0.2-0.5
		c-0.4-1-0.1-1.9,0.8-2.5c0.7-0.4,1.5-0.6,2.3-0.6c1.4-0.1,2.7,0.2,4,0.9c1.5,0.8,2.8,1.9,3.8,3.3c0.1,0.2,0.2,0.4,0.3,0.6
		c-0.4,0.2-0.7,0.1-0.9-0.2c-0.1-0.2-0.3-0.4-0.4-0.5c-1.4-1.6-3-2.6-5.2-2.8c-0.6-0.1-1.3,0-1.9,0.3c-0.7,0.3-1,0.8-0.7,1.6
		c0.1,0.2,0.2,0.4,0.2,0.6c0.1,0.3,0.3,0.3,0.5,0.4c2.6,0.3,5.3,0.6,7.9,0.9c2.2,0.3,4.5,0.3,6.7,0.3c0.5,0,1,0,1.5-0.1
		c0.3,0,0.5,0.1,0.7,0.3c0.3,0.4,0.5,0.8,0.9,1.4c-2.1,0-4.1-0.2-6.2-0.3c0,0.6-0.1,1.1-0.1,1.8c0.2,0,0.4,0,0.5-0.1
		c1.7-0.3,3.5,0.9,3.9,2.6c0.1,0.4,0.1,0.8-0.1,1.1c-0.2,0.6-0.6,1.2-0.9,1.9c-0.7-0.3-1.3-0.5-1.9-0.7c0.2-0.3,0.4-0.5,0.5-0.7
		c0.3-0.5,0.6-1,0.7-1.6c0.2-0.7-0.3-1.3-1.1-1.2c-0.6,0.1-1.1,0.3-1.5,0.7c-0.2,0.2-0.2,0.5-0.3,0.7c0,0.9-0.1,1.9-0.2,2.9
		c-0.2-0.1-0.3-0.1-0.4-0.2c-0.3-0.2-0.6-0.5-0.9-0.7c-0.9-0.7-0.8-0.4-0.7-1.6c0-0.7,0.1-1.3,0.1-2c-0.2-0.1-0.4-0.1-0.6-0.1
		c-0.6,0-1.2-0.1-1.8,0c-0.3,0-0.7,0.2-1,0.3c-0.4,0.3-0.6,0.7-0.5,1.2c0.1,0.5,0.4,1,0.8,1.3c0.4,0.4,0.9,0.7,1.3,1.1
		c-0.1,0.2-0.3,0.3-0.4,0.5c-1.3-0.6-2.5-1.4-3.4-2.6c-0.4-0.6-0.7-1.3-0.4-2.1c-0.4,0-0.7-0.1-1-0.1c-0.4,0-0.6-0.1-0.8-0.4
		c-0.2-0.4-0.5-0.7-0.9-1.2c3,0.1,5.8,0.3,8.7,0.4c0-0.4,0-0.7,0.1-1.2c-0.9-0.1-1.7-0.2-2.5-0.3c-2.4-0.2-4.8-0.3-7.1-0.8
		c0,0-0.1,0-0.2,0c-0.4,2.3-0.8,4.7-1.2,7.2c-0.2-0.1-0.3-0.2-0.4-0.3c-0.3-0.3-0.6-0.5-0.9-0.8c-0.8-0.8-0.7-0.4-0.5-1.6
		c0.2-1.5,0.5-3,0.7-4.4c0-0.1,0-0.3,0-0.5c-0.8-0.1-1.6-0.3-2.5-0.4c-0.7,2.4-1.3,4.7-2,7.1c-0.4-0.2-0.6-0.5-0.8-0.8
		c-0.3-0.4-0.8-0.7-0.9-1.1c-0.1-0.4,0.2-0.9,0.3-1.4c0-0.2,0.1-0.3,0.1-0.6c-0.9-0.2-1.9-0.5-2.8-0.7c-0.3,0.3-0.4,0.6-0.7,0.8
		c-0.4,0.3-0.7,0.4-1,0.1c-1-0.7-1.7-1.6-2.1-2.8c-0.2-0.5,0-0.6,0.5-0.5c0.3,0.1,0.6,0.2,0.9,0.2c0.3,0.1,0.6,0.1,0.9,0.2
		c0.2-0.5,0.3-0.9,0.5-1.4c-0.3-0.1-0.5-0.2-0.7-0.3c-0.7-0.3-1.3-0.6-1.8-1.2c-0.4-0.5-0.9-0.7-1.5-0.9c-0.3,0.7-0.3,1.6-0.7,2.4
		c-0.2-0.1-0.5-0.1-0.7-0.2c-0.9-0.4-1.9-0.8-2.8-1.1c-0.5-0.2-1.1-0.2-1.6,0c-0.5,0.2-0.9,0.6-1,1.2c0,0.6,0.2,1.1,0.8,1.3
		c0.3,0.2,0.7,0.3,1,0.4c1.2-0.7,2.2-0.6,3,0.3c0.7,0.8,0.4,1.6-0.6,1.8c-0.3,0.1-0.6,0.1-1,0.1c0.2,0.5,0.3,1.1,0.5,1.6
		c-0.4,0.1-0.7,0.1-1.2,0.2c0.8,0.9,1.6,1.6,2.4,2.3c0.7,0.8,1.4,1.6,2.2,2.4c-0.2,0.1-0.4,0.2-0.7,0.3c-0.2-0.1-0.3-0.3-0.4-0.4
		c-1-1.1-2.1-2.2-3.1-3.3c-0.2-0.2-0.4-0.5-0.7-0.4c-0.9,0.2-1.1-0.5-1.5-1.2c0.7,0.1,1.2,0.1,1.8,0.2c-0.1-0.6-0.2-1.2-0.3-1.8
		c0-0.1-0.3-0.3-0.5-0.4c-1.5-0.9-2.4-2.1-2.8-3.8c-0.2-1,0.3-1.9,1.3-2.3c1-0.4,2-0.3,3,0c0.6,0.2,1.1,0.4,1.8,0.7
		c0.1-0.3,0.3-0.6,0.4-0.9c-0.1-0.1-0.2-0.2-0.4-0.3c-1.9-0.8-3.8-1.6-5.7-2.4c-0.1,0-0.1,0-0.3-0.1c-0.7,1-1.3,2.1-1.9,3.2
		c-0.6,1.1-1.3,2.1-2,3.3c-0.2-0.4-0.4-0.7-0.5-1c-0.2-0.4-0.6-0.9-0.5-1.3c0-0.4,0.4-0.8,0.6-1.2c0.1-0.2,0.2-0.3,0.3-0.6
		c-1-0.6-2-1.1-3.1-1.7c-0.2,0.3-0.3,0.5-0.5,0.8c-0.3,0.4-0.6,0.5-1,0.1c-0.1-0.1-0.3-0.3-0.4-0.5c-0.5-0.8-0.8-1.6-0.9-2.5
		c-0.1-0.3-0.1-0.6,0.1-0.9c0.6,0,0.9,0.4,1.4,0.6c0.4-0.3,1.1-1.4,1.3-2.1c-0.5-0.3-1-0.6-1.5-0.8c-0.3-0.2-0.5-0.4-0.6-0.8
		c0-0.4-0.1-0.9-0.1-1.5c0.3,0.1,0.5,0.2,0.7,0.3c2.9,1.6,5.7,3.2,8.6,4.7c1.5,0.8,3.1,1.4,4.7,2.1c1.3,0.6,2.7,1.1,4,1.6
		c0.2,0.1,0.4,0.1,0.6,0.1c1.4-0.3,2.5,0.2,3.3,1.3c0.7,0.9,0.8,1.9,0.7,3c0,0.4-0.1,0.8-0.2,1.3c0.9,0.2,1.7,0.5,2.7,0.7
		c0.3-0.8,0.5-1.6,0.7-2.4c-0.5-0.1-1-0.3-1.5-0.4c-0.4-0.1-0.7-0.3-0.9-0.7C79,176.6,78.7,176.2,78.3,175.5z M63,171.3
		c-1.1-0.6-2.1-1.2-3.1-1.7c-0.5,0.8-0.9,1.5-1.3,2.2c1.1,0.6,2.1,1.1,3.1,1.7C62.1,172.7,62.5,172,63,171.3z M77,177.3
		c0.5-1.1,0.1-1.8-0.9-2c-0.3-0.1-0.6,0-0.8,0.3c-0.2,0.3-0.1,0.6,0.1,0.8C75.8,176.9,76.3,177.2,77,177.3z"/>
	<path class="st0" d="M135.6,22.9c-0.6,0.7-1.3,1.4-1.9,2.2c-1.3,1.4-2.6,2.9-3.9,4.4c-0.1,0.1-0.1,0.2-0.2,0.3
		c-0.3,0.3-0.6,0.5-1,0.3c-0.5-0.2-0.8-0.5-0.8-1c0-0.2,0-0.4,0-0.5c0-2.9,0-5.8,0-8.6c0-0.2,0-0.4,0-0.8c-0.2,0.2-0.3,0.3-0.3,0.4
		c-1.1,1.9-2.2,3.7-3.3,5.6c-0.3,0.5-0.3,0.9-0.2,1.4c0.1,0.3,0.1,0.5,0.1,0.8c0,0.6-0.3,0.8-0.9,0.6c-0.9-0.4-1.9-0.7-2.8-1.1
		c-0.5-0.2-0.6-0.6-0.2-1c0.2-0.2,0.4-0.4,0.6-0.5c0.5-0.3,0.8-0.7,1.1-1.2c1.7-2.9,3.5-5.8,5.2-8.7c0.3-0.6,0.4-1.1,0.2-1.7
		c-0.1-0.2-0.1-0.4-0.1-0.7c0-0.5,0.3-0.8,0.8-0.6c1.1,0.4,2.2,0.9,3.3,1.3c0.6,0.2,0.8,0.7,0.8,1.3c0,1-0.1,1.9-0.1,2.9
		c-0.1,0.9-0.2,1.8-0.2,2.8c-0.1,1.1-0.1,2.2,0,3.3c0.1-0.1,0.3-0.3,0.4-0.5c1.6-1.9,3.2-3.8,4.8-5.7c1.1-1.2,1.2-1.3,2.7-0.7
		c0.8,0.3,1.6,0.7,2.4,1c0.7,0.3,0.8,0.8,0.1,1.2c-1.5,0.8-1.3,1.1-1.5,2.4c-0.7,3.1-1.3,6.2-1.9,9.3c-0.1,0.6-0.1,1.2,0,1.8
		c0,0.2,0.1,0.4,0.1,0.5c0,0.7-0.4,1-1,0.7c-1.5-0.6-3-1.2-4.5-1.9c-0.8-0.3-0.8-0.7-0.2-1.3c0.1-0.1,0.3-0.2,0.4-0.3
		c0.4-0.3,0.7-0.7,0.8-1.2c0.4-2,0.9-3.9,1.3-5.9c0-0.1,0-0.2,0-0.3C135.7,22.9,135.7,22.9,135.6,22.9z"/>
	<path class="st0" d="M73.8,19.7c0.7,0.1,1.4,0,2.1,0.2c2.8,0.5,4.1,3.6,2.6,6c-0.5,0.8-1.2,1.4-2,2c-1,0.7-2.2,1.2-3.3,1.7
		c-1.9,0.7-3.8,1.4-5.6,2.1c-0.3,0.1-0.7,0.4-1,0c-0.3-0.3-0.2-0.7-0.1-1c0.3-0.8,0.1-1.5-0.2-2.2c-1.2-3.1-2.3-6.1-3.5-9.2
		c-0.2-0.6-0.5-1-1-1.3c-0.2-0.1-0.4-0.3-0.6-0.5c-0.4-0.4-0.3-0.8,0.2-1c0.5-0.2,1.1-0.4,1.6-0.6c1.7-0.6,3.4-1.3,5.1-1.9
		c1.1-0.4,2.3-0.6,3.5-0.5c1.5,0.2,2.6,0.9,3.1,2.3c0.6,1.4,0.4,2.7-0.6,3.8C73.9,19.6,73.8,19.6,73.8,19.7z M69,22.9
		c0.5,1.3,0.9,2.5,1.4,3.7c0.3,0.7,0.8,1.1,1.6,1.1c0.5,0,1-0.2,1.4-0.4c0.7-0.3,1.1-0.9,1-1.7C74.3,23.4,71.5,21.5,69,22.9z
		 M71.2,18.8c-0.1-0.8-0.4-1.6-1-2.2c-0.7-0.8-1.6-1-2.6-0.5c-0.6,0.3-0.8,0.7-0.6,1.3c0.3,0.9,0.6,1.8,1,2.7
		c0.2,0.6,0.8,0.8,1.4,0.6c0.3-0.1,0.6-0.2,0.9-0.3C70.9,20.1,71.2,19.6,71.2,18.8z"/>
	<path class="st0" d="M142,161.9c0.3-0.2,0.6-0.4,0.8-0.6c1.7-1,3.6-1.3,5.6-1.2c0.5,0,0.9,0.1,1.4,0.2c0.5,0.1,0.8,0,1.2-0.3
		c3.2-2.5,6.2-5.3,9-8.3c0.7-0.7,1.4-1.5,2.1-2.2c0.2-0.2,0.4-0.3,0.8-0.2c0.5,0.1,0.9,0.2,1.5,0.3c-0.9,1.3-2,2.3-3,3.5
		c0.4,0.4,0.7,0.7,1.1,1.1c1.1-1.6,2.5-2.2,4.3-1.6c1.4,0.4,1.7,1.7,2.1,3c-0.6,0.3-1.2,0.6-1.8,0.8c-0.1-0.2-0.1-0.4-0.2-0.6
		c-0.2-0.7-0.3-1.3-0.7-1.9c-0.5-0.7-1.3-0.7-1.8,0.1c-0.3,0.5-0.4,1-0.3,1.5c0,0.2,0.2,0.4,0.3,0.6c0.5,0.5,1.1,1.1,1.6,1.6
		c0.2,0.2,0.4,0.3,0.6,0.4c0,0.1-0.1,0.1-0.1,0.2c-0.5,0.1-1,0.2-1.5,0.3c-1,0.2-1,0.2-1.8-0.6c-0.5-0.4-0.9-0.9-1.4-1.3
		c0,0-0.1,0-0.2-0.1c-0.5,0.5-1.2,1-1.7,1.6c-0.8,0.9-0.4,1.9,0.7,2.2c0.7,0.2,1.5,0.2,2.2,0.1c0.2,0,0.4-0.1,0.6-0.1
		c0.2,0.7,0.2,0.7-0.3,0.8c-1.1,0.4-2.2,0.6-3.3,0.5c-0.9,0-1.8-0.3-2.4-1.2c-0.3,0.3-0.5,0.5-0.8,0.7c-0.1,0.1-0.3,0.3-0.5,0.2
		c-0.5,0-1.1-0.1-1.8-0.2c2.1-2,4.1-3.9,6.2-5.9c-0.3-0.3-0.5-0.5-0.8-0.7c-2.4,2.2-4.8,4.4-7.2,6.6c1.5,1.9,3.1,3.8,4.7,5.8
		c-0.9,0.1-1.7,0.1-2.4,0.1c-0.2,0-0.4-0.2-0.6-0.4c-1-1.2-1.9-2.4-2.9-3.6c-0.2-0.2-0.3-0.4-0.6-0.7c-0.7,0.5-1.4,1-2.2,1.6
		c1.4,2.1,2.7,4.1,4.1,6.3c-0.5,0-0.9,0-1.3,0c-0.9,0.1-1.5-0.1-1.9-1c0-0.1-0.1-0.1-0.2-0.2c-0.7,1.7-1.5,3.3-2.2,5
		c-0.6-0.1-1.1-0.1-1.7-0.2c0.6-1.3,1.1-2.5,1.7-3.8c-0.3,0.1-0.5,0.1-0.7,0.2c-0.6,0-1.2,0.1-1.7,0.1c-0.8-0.1-1.4-0.5-1.8-1.2
		c-0.2-0.4-0.5-0.7-0.8-1.1c-0.3,0.2-0.6,0.3-0.9,0.5c-0.3,0.2-0.5,0.2-0.8,0.1c-0.5-0.2-1-0.4-1.6-0.6c1.9-1.2,3.6-2.2,5.3-3.3
		c1.7-1.1,3.4-2.3,5.1-3.6c-1.2-0.6-3.2,0-5.9,1.7c-0.2-0.1-0.5-0.3-0.7-0.4C142.5,162.3,142.3,162.1,142,161.9z M147,165.3
		c-1,0.6-1.9,1.2-2.8,1.8c0.5,0.7,1,1.4,1.4,2.1c0.1,0.1,0.2,0.2,0.3,0.2c0.5,0.2,1.7-0.1,2.1-0.5c0.2-0.3,0.4-0.7,0.5-1
		c0-0.1,0-0.3-0.1-0.4C147.9,166.7,147.5,166.1,147,165.3z"/>
	<path class="st0" d="M93.5,21.5c-0.1-0.9-0.2-1.8-0.3-2.6c-0.1-0.3-0.3-0.6-0.5-0.9c-0.2-0.2-0.4-0.4-0.6-0.6
		c-0.4-0.4-0.3-1,0.3-1.1c0.5-0.1,1-0.1,1.5-0.2c1.2-0.1,2.5-0.3,3.7-0.4c0.1,0,0.2,0,0.3,0c0.5,0,0.7,0.3,0.6,0.7
		c-0.1,0.3-0.2,0.5-0.3,0.7c-0.3,0.6-0.5,1.1-0.4,1.8c0.1,0.7,0.2,1.3,0.2,2c0.1,0.7-0.2,1.2-0.6,1.7c-1,1.1-2.3,1.9-3.7,2.2
		c-2.4,0.6-4.8,0.5-6.9-1c-2.5-1.7-3.8-4-3.9-7.1c-0.1-2.4,0.7-4.4,2.4-6.2c1.4-1.4,3.1-2.1,5-2.2c1.3-0.1,2.5-0.1,3.8,0.4
		c0.6,0.2,1.2,0.6,1.8,0.9c0.8,0.5,1.2,1.3,1.3,2.2c0.1,1.1-0.5,2.1-1.6,2.3c-0.7,0.1-1.4,0-2-0.3c-0.7-0.4-1.3-0.9-1.8-1.5
		c-0.4-0.5-0.9-1-1.4-1.5c-1.2-1-2.4-0.6-2.9,0.9c-0.3,0.8-0.2,1.6-0.1,2.5c0.3,2.1,0.9,4,2.3,5.6c0.7,0.8,1.4,1.5,2.5,1.7
		C92.5,21.8,92.9,21.8,93.5,21.5z"/>
	<path class="st0" d="M110.4,8.6c2,0.1,3.9,0.5,5.6,1.8c0.6,0.4,1.1,0.9,1.5,1.6c0.4,0.7,0.5,1.5,0.2,2.3c-0.3,0.7-0.8,1.1-1.5,1.1
		c-1.2,0.1-2.1-0.5-2.6-1.7c-0.2-0.5-0.4-1-0.6-1.5c-0.1-0.3-0.3-0.7-0.5-1c-0.5-0.7-1.2-1-2.1-0.8c-0.5,0.1-0.8,0.5-0.9,1
		c-0.4,1.2,0,2.5,1.1,3.2c0.6,0.4,1.2,0.7,1.8,1c1,0.6,2,1.1,2.9,1.7c2.4,1.6,2.1,5.7-0.3,7.1c-1.2,0.7-2.4,1-3.8,1
		c-1.7,0-3.4-0.3-4.9-1.1c-0.9-0.5-1.6-1-2.3-1.8c-0.5-0.6-0.8-1.3-0.7-2.1c0.1-0.7,0.3-1.4,1-1.7c0.8-0.3,1.6-0.2,2.2,0.5
		c0.4,0.4,0.6,0.9,0.9,1.4c0.3,0.5,0.4,1,0.7,1.5c0.4,0.8,1.1,1.3,1.9,1.4c0.6,0.1,1.3,0.1,1.7-0.5c0.4-0.6,0.4-1.2,0.2-1.9
		c-0.2-0.6-0.6-1-1.1-1.3c-0.6-0.3-1.2-0.6-1.8-0.9c-0.9-0.5-1.9-1-2.8-1.6c-2.7-1.8-2.4-6.4,0.3-8C107.9,8.8,109.1,8.5,110.4,8.6z"
		/>
	<path class="st0" d="M40.8,154c-0.6-0.7-1.1-1.4-1.7-2c-2.1,1.4-4.1,2.8-6.3,4.2c-0.1-0.2-0.1-0.3-0.1-0.4c0-0.5-0.1-1-0.1-1.4
		c-0.1-0.4,0-0.7,0.4-0.9c0.1-0.1,0.2-0.2,0.4-0.3c-0.2-0.1-0.3-0.2-0.5-0.2c-1.2-0.6-2-1.5-2.5-2.6c-0.3-0.6-0.4-1.2-0.3-1.9
		c0.1-1.1,1.1-2.2,2.6-1.7c0.1,0,0.2,0.1,0.4,0.1c0-0.3,0-0.5,0-0.8c0.1-0.5,0.1-1,0.3-1.4c0.3-0.8,1.1-1.1,2-0.9
		c1,0.3,1.9,1.3,1.9,2.3c0.1,0.7-0.1,1.1-0.6,1.3c-0.6,0.2-1.1,0.1-1.5-0.3c-0.2-0.2-0.4-0.6-0.6-0.9c-0.1-0.1-0.1-0.3-0.2-0.5
		c-0.3,0.4-0.3,0.8-0.1,1.2c0.2,0.5,0.4,0.9,0.7,1.3c0.2,0.3,0.3,0.6,0.3,1c-0.1,0.5-0.1,1-0.3,1.5c-0.2-0.3-0.4-0.5-0.6-0.8
		c-0.4-0.6-0.9-1.1-1.5-1.5c-0.3-0.2-0.6-0.3-0.9-0.3c-0.6-0.1-0.9,0.2-0.8,0.8c0,0.3,0.1,0.6,0.3,0.8c0.9,1.3,2,2.1,3.6,2.3
		c0.2,0,0.4,0,0.5-0.1c0.8-0.5,1.6-1,2.4-1.6c-0.1-0.2-0.2-0.4-0.3-0.5c-0.3-0.3-0.3-0.6-0.1-1c0.2-0.4,0.3-0.8,0.5-1.3
		c0.5,0.8,0.9,1.5,1.4,2.1c0.5,0.7,0.9,1.3,1.5,2c0.5,0.6,1,1.3,1.6,1.9c0.5,0.6,1.1,1.2,1.7,1.8c0.6,0.6,1.2,1.2,1.8,1.7
		c0.6,0.6,1.2,1.1,1.8,1.6c0.6,0.5,1.2,1,2,1.7c0-0.6,0-1-0.1-1.5c-0.4-1.5-1.2-2.8-2.4-3.9c-0.6-0.5-0.5-0.4-0.3-1.1
		c0.1-0.3,0.3-0.6,0.4-0.9c1.5,1.2,2.3,2.8,2.9,4.5c1.1-0.6,2.1-0.5,3,0.2c0.7,0.6,1.1,1.4,1.2,2.2c-0.4,0.2-0.6,0-0.8-0.3
		c-0.3-0.6-0.8-1-1.5-1c-0.9,0-1.5,0.6-1.6,1.4c0,0.6,0,1.1,0.6,1.5c0.6,0.4,0.8,0.9,0.7,1.6c-0.1,0.3-0.1,0.6-0.1,1
		c-0.5-0.4-1-0.8-1.5-1.2c-1.7,1.9-3.3,3.7-5,5.6c-0.1-0.4-0.2-0.7-0.3-1.1c-0.1-0.5-0.4-1-0.3-1.4c0.1-0.4,0.6-0.7,0.9-1.1
		c1-1.2,2.1-2.3,3.1-3.5c-0.7-0.5-1.3-1.1-2-1.6c-1.9,1.7-3.7,3.3-5.6,5c-0.1-0.2-0.2-0.4-0.2-0.5c-0.1-0.4-0.1-0.8-0.2-1.1
		c-0.2-0.6,0-1,0.5-1.4c0.3-0.2,0.5-0.5,0.9-0.8c-0.8-0.9-1.6-1.7-2.4-2.5c-0.2,0.2-0.4,0.4-0.6,0.5c-0.5,0.4-0.9,0.4-1.2-0.3
		c-0.1-0.2-0.2-0.5-0.2-0.7c-0.1-0.7-0.1-1.4-0.1-2.1c0-0.4,0.1-0.8,0.4-1.1c0.6,0.1,0.8,0.7,1.3,1C39.6,155.1,40.2,154.6,40.8,154z
		 M44.7,158.2c-0.3-0.5-1.9-2.2-2.5-2.5c-0.6,0.5-1.2,1.1-1.8,1.6c0.9,0.9,1.7,1.7,2.5,2.5c0.5-0.4,0.9-0.8,1.3-1.1
		C44.4,158.5,44.5,158.3,44.7,158.2z M36.5,145.8c0-0.5-0.5-1-1-1c-0.4,0-0.6,0.3-0.6,0.7c0,0.5,0.5,1,1,1
		C36.2,146.5,36.5,146.2,36.5,145.8z"/>
	<path class="st0" d="M132.8,174.7c-0.1-0.3-0.2-0.4-0.2-0.6c0-0.1-0.1-0.2-0.2-0.4c-3.7,1.7-7.5,2.9-11.4,4.1
		c0.1,0.5,0.2,1,0.4,1.5c0.8-0.6,1.7-0.8,2.6-0.8c1.4,0.1,2.8,1.3,3.1,2.7c0.2,0.8-0.1,1.5-0.6,2.2c-0.7-0.2-1.3-0.4-2-0.7
		c0.2-0.2,0.3-0.4,0.4-0.6c0.2-0.3,0.4-0.7,0.5-1c0.2-0.7-0.1-1.2-0.9-1.2c-0.9,0-1.7,0.4-2.4,1.1c-0.1,0.1-0.1,0.4-0.1,0.6
		c0.2,0.9,0.4,1.8,0.6,2.7c0,0.2,0.1,0.4,0.1,0.7c-0.8-0.3-1.5-0.6-2.2-0.9c-0.2-0.1-0.3-0.3-0.4-0.5c-0.1-0.3-0.2-0.6-0.2-1
		c-0.2,0.2-0.4,0.3-0.6,0.4c-2,1.6-4.1,0.9-5.5-0.2c-0.9-0.7-0.9-1.6-0.1-2.3c1-0.9,2.2-1.2,3.4-1.2c0.5,0,0.9,0.1,1.4,0.2
		c0.2,0,0.4,0.1,0.7,0.1c-0.1-0.5-0.2-1-0.3-1.5c-0.3,0-0.5,0-0.7,0.1c-1.9,0.4-3.9,0.8-5.8,1.3c-0.4,0.1-0.8,0.1-1.1-0.3
		c-0.3-0.3-0.6-0.6-1-0.9c0.3-0.1,0.5-0.2,0.7-0.2c4.8-1,9.5-2.1,14.2-3.5c3.2-1,6.4-2.2,9.5-3.7c0.5,0.3,1.1,0.6,1.6,1
		c-0.5,0.5-1.2,0.5-1.8,0.9c1,2.2,2,4.5,3,6.8c-0.9-0.1-1.6-0.2-2.3-0.3c-0.2,0-0.3-0.3-0.4-0.4c-0.3-0.7-0.6-1.4-0.9-2
		c-0.1-0.2-0.2-0.4-0.3-0.6c-0.2,0-0.3,0.1-0.5,0.1c-0.8,0.3-1.6,0.6-2.3,1c-0.1,0.1-0.3,0.1-0.4,0.2c-1,0.6-1.1,1.8-0.2,2.5
		c0.6,0.5,1.3,0.7,2.1,0.8c0.2,0,0.4,0.1,0.7,0.1c-0.2,0.7-0.2,0.8-0.8,0.7c-0.8-0.2-1.6-0.4-2.4-0.7c-0.5-0.2-1.1-0.6-1.5-1
		c-0.7-0.7-0.7-1.4-0.2-2.2c0.4-0.7,1-1.1,1.7-1.4c0.9-0.4,1.8-0.7,2.6-1.1C132.3,174.9,132.5,174.8,132.8,174.7z M119.2,180.6
		c-1.2-0.4-2.8-0.2-3.7,0.5c-0.2,0.2-0.4,0.4-0.6,0.6c-0.3,0.4-0.1,0.7,0.4,0.9c0.1,0,0.2,0,0.3,0
		C116.7,182.8,118.5,181.8,119.2,180.6z"/>
	<path class="st0" d="M154.6,48.9c0.4-0.5,1-0.8,1.5-1.2c-0.2-0.2-0.3-0.3-0.5-0.5c-0.8-0.9-1.5-1.9-1.8-3.1c-0.2-0.6-0.2-0.7,0.5-1
		c0.7-0.3,1.5-0.5,2.3-0.5c0.2,0,0.3,0,0.5,0c-0.1-0.2-0.2-0.5-0.3-0.6c-0.6-1.2-0.9-2.4-0.8-3.7c0.2-1.6,0.2-1.6,1.7-1.4
		c1.3,0.2,2.4,0.7,3.4,1.5c0.2,0.1,0.4,0.3,0.6,0.5c0.3-1.2,0.7-2.3,1.6-3.2c1.5,0.7,2.7,1.8,3.5,3.2c0.5-0.4,1-0.8,1.5-1.3
		c0.8,1,1.3,2.1,1.4,3.3c0.2,3-1.4,5.4-4.2,6.6c-0.4,0.2-0.7,0.4-0.9,0.8c-1.1,1.5-2.6,2.5-4.5,2.8C158,51.5,156.1,50.7,154.6,48.9z
		 M163.4,47.4c-0.1-0.1-0.2-0.3-0.3-0.3c-0.9-0.8-1.9-1.5-3.1-2c-0.9-0.4-1.8-0.6-2.7-0.7c-0.5,0-1,0-1.5,0.3
		c0.5,1.8,1.9,2.8,3.5,3.3C160.8,48.6,162.2,48.5,163.4,47.4z M164.2,38.1c-1.5,2-0.3,6.3,1,7.9c0.7-0.4,1.1-1,1.3-1.8
		c0.5-2.1,0.1-3.9-1.4-5.5C164.8,38.5,164.5,38.3,164.2,38.1z M158.5,39.4c-0.3,0.4-0.3,0.8-0.2,1.2c0.2,0.9,0.6,1.7,1.1,2.4
		c1,1.3,2.3,2.2,3.8,2.8c0.1,0,0.2,0,0.3,0c-0.3-1.7-0.8-3.3-1.9-4.6c-0.5-0.5-1-1-1.6-1.4C159.6,39.6,159.1,39.4,158.5,39.4z
		 M166.9,45.4c2.1-1,2.9-4.1,1.4-5.6c-0.4,0.3-0.7,0.7-0.6,1.3C167.9,42.6,167.7,44,166.9,45.4z M162.3,49.1c0,0-0.1-0.1-0.1,0
		c-1.4,0.4-2.8,0.3-4.2-0.2c-0.5-0.2-1,0-1.4,0.4C157.9,50.8,160.9,51,162.3,49.1z"/>
	<path class="st0" d="M31.2,37.7c0.5,0.4,1,0.8,1.5,1.3c0.9-1.4,2-2.5,3.5-3.2c0.9,0.8,1.3,1.9,1.6,3.2c0.2-0.2,0.4-0.3,0.6-0.4
		c1.1-0.8,2.3-1.4,3.6-1.6c1.3-0.1,1.3-0.2,1.5,1.2c0.2,1.4-0.2,2.7-0.7,3.9c-0.1,0.2-0.2,0.4-0.3,0.6c0.6,0.1,1.1,0.1,1.6,0.2
		c0.4,0.1,0.8,0.2,1.2,0.4c0.6,0.2,0.6,0.3,0.4,0.9c-0.3,1.1-0.9,2.1-1.7,2.9c-0.2,0.2-0.4,0.4-0.6,0.6c0.5,0.4,1.1,0.6,1.5,1.2
		c-0.9,1.1-2,1.9-3.4,2.1c-2.7,0.5-4.9-0.4-6.6-2.6c-0.4-0.5-0.8-0.8-1.3-1c-2.1-1-3.5-2.6-3.9-4.9C29.6,40.8,30,39.2,31.2,37.7z
		 M36.2,47.5c0.3,0.2,0.5,0.3,0.7,0.5c0.7,0.4,1.5,0.5,2.2,0.4c1.8-0.2,3.3-1.1,4.2-2.6c0.2-0.3,0.4-0.6,0.3-1
		C42,43.9,38.5,45.1,36.2,47.5z M34.5,46c0.1,0,0.1,0,0.1,0c0,0,0.1-0.1,0.1-0.1c1-1.8,1.6-3.6,1.5-5.7c-0.1-0.7-0.2-1.4-0.7-2
		c-1.6,0.8-2.2,2.3-2.5,3.9C32.8,43.6,33.1,45,34.5,46z M41.2,39.5c-0.2,0-0.4,0-0.5,0c-0.9,0.2-1.7,0.7-2.4,1.4
		c-1.3,1.4-2,3.1-2.3,5c0.2-0.1,0.4-0.1,0.5-0.1c1.2-0.5,2.3-1.3,3.3-2.3c0.6-0.6,1.1-1.4,1.3-2.2C41.3,40.7,41.5,40.1,41.2,39.5z
		 M32.7,45.4c0-0.1,0-0.2-0.1-0.3c-0.7-1.2-0.8-2.6-0.7-4c0.1-0.6-0.1-1-0.7-1.3C30,41.7,30.6,44.3,32.7,45.4z M43.1,49.2
		c-0.6-0.4-1-0.5-1.7-0.3c-1.2,0.5-2.5,0.5-3.7,0.2c-0.1,0-0.2,0-0.3,0C38.9,51.1,41.9,50.7,43.1,49.2z"/>
	<path class="st0" d="M21.4,118.6c0.8-1,1.6-1.8,2.7-2.3c1.2,1.2,1.7,2.7,2,4.4c0.6-0.2,1.2-0.4,1.8-0.6c0.3,0.6,0.3,1.2,0.3,1.8
		c0,3.4-2.7,5.6-5.3,6c-0.6,0.1-1.1,0.1-1.7,0.1c-0.3,0-0.5,0.1-0.7,0.2c-0.9,0.5-1.9,0.9-2.9,1c-2.3,0.3-5.4-0.8-6.5-4
		c-0.1-0.2-0.1-0.3-0.1-0.6c0.6-0.1,1.2-0.3,1.8-0.4c-0.2-0.7-0.4-1.4-0.5-2.1c-0.1-0.7-0.1-1.4,0-2.2c0-0.5,0.1-0.6,0.7-0.6
		c0.8,0,1.5,0.1,2.3,0.4c0.2,0.1,0.4,0.1,0.7,0.2c-0.1-2.1,0.2-3.9,1.6-5.5C19.3,115.2,20.5,116.7,21.4,118.6z M23.8,118.6
		c-0.3,0.3-0.6,0.6-0.8,0.9c-0.6,0.8-1,1.7-1.2,2.6c-0.3,1.3-0.3,2.6-0.2,4c0,0.1,0.1,0.1,0.1,0.2c0.2-0.1,0.4-0.1,0.6-0.2
		c0.8-0.3,1.4-1,1.8-1.7c0.6-1.1,0.8-2.3,0.7-3.5C24.7,120.1,24.5,119.3,23.8,118.6z M13.6,121.3c0,0.6,0,1.1,0.1,1.5
		c0.3,1.5,1.2,2.7,2.5,3.6c0.6,0.4,1.2,0.6,2,0.7c0.4,0,0.9,0,1.3-0.2c0-0.1-0.1-0.3-0.1-0.4c-0.5-1-1.1-2-1.9-2.9
		c-0.7-0.8-1.6-1.5-2.6-1.9C14.5,121.5,14.1,121.5,13.6,121.3z M20.2,125.6c0.3-0.8,0.4-1.6,0.4-2.4c0-1.4-0.2-2.8-0.9-4.1
		c-0.4-0.7-0.9-1.2-1.6-1.5c-0.3,0.3-0.5,0.7-0.6,1.1c-0.2,0.7-0.2,1.4,0,2.1C17.9,122.7,18.8,124.2,20.2,125.6z M27,121.9
		c-0.6,0.2-1,0.4-1.2,1c-0.3,1.3-1,2.4-2,3.2c-0.1,0.1-0.2,0.2-0.3,0.3C25.9,126.3,27.5,124.2,27,121.9z M12.5,125.8
		c0.7,2.2,3.9,3.5,5.2,2.1c-0.1,0-0.1-0.1-0.2-0.1c-1.3-0.1-2.4-0.8-3.3-1.6C13.7,125.8,13.2,125.7,12.5,125.8z"/>
	<path class="st0" d="M172,120.1c0.7,0.2,1.2,0.4,1.8,0.6c0.3-1.6,0.8-3.1,2-4.4c1.1,0.4,2,1.2,2.7,2.3c0.9-1.9,2.1-3.4,4.1-4
		c1.4,1.6,1.7,3.5,1.6,5.6c1.1-0.5,2.2-0.8,3.5-0.6c0.3,0.8,0.3,1.6,0.2,2.4c-0.1,0.8-0.4,1.6-0.5,2.4c0.6,0.1,1.2,0.3,1.8,0.4
		c0,0.2,0,0.3-0.1,0.4c-1.1,3.3-4.6,4.9-7.7,3.9c-0.5-0.2-1-0.4-1.5-0.6c-0.5-0.3-1-0.4-1.5-0.4c-1.9,0-3.6-0.7-4.9-2.1
		c-1.3-1.4-1.9-3.1-1.6-5.1C171.9,120.6,172,120.4,172,120.1z M178.4,126.3c0.2-1.3,0.1-2.4-0.1-3.6c-0.2-1.1-0.6-2.2-1.2-3.1
		c-0.3-0.4-0.5-0.7-1.1-0.9c-0.2,0.3-0.4,0.6-0.5,0.9c-0.7,2-0.4,3.9,0.9,5.6C176.9,125.8,177.6,126.2,178.4,126.3z M180.6,126.9
		c1.2,0.5,2.9,0,4-1.1c1.2-1.2,2-2.5,1.7-4.3c-0.6-0.1-1.1,0.1-1.6,0.4c-2,1.1-3.2,2.9-4.1,4.9C180.6,126.8,180.6,126.8,180.6,126.9
		z M179.7,125.6c0.3-0.3,0.4-0.4,0.6-0.6c0.7-0.8,1.3-1.7,1.7-2.7c0.4-1,0.6-1.9,0.5-3c-0.1-0.6-0.2-1.3-0.7-1.8
		c-0.9,0.4-1.4,1-1.8,1.8C179.1,121.4,179.2,123.4,179.7,125.6z M176.4,126.5c0,0,0-0.1,0-0.1c-1.2-0.9-1.9-2.1-2.3-3.6
		c-0.1-0.5-0.6-0.7-1.1-0.7C172.4,124.1,174.2,126.5,176.4,126.5z M187.4,125.8c-0.6-0.1-1.1-0.1-1.6,0.4c-0.9,0.9-2,1.5-3.3,1.7
		c-0.1,0-0.2,0.1-0.3,0.1C184.2,129.1,187.1,127.8,187.4,125.8z"/>
	<path class="st0" d="M15.6,99.9c0.2-2.7,0.3-5.3,0.5-8c1.4-14.8,6.4-28.2,14.8-40.4c0.1-0.2,0.3-0.4,0.4-0.6
		c0.1-0.2,0.3-0.3,0.6-0.2c0.3,0.1,0.4,0.4,0.3,0.7c-0.1,0.2-0.2,0.4-0.3,0.6c-3.9,5.6-7.1,11.7-9.6,18.1c-2,5.3-3.5,10.8-4.4,16.4
		c-0.4,2.6-0.8,5.3-0.9,8c-0.1,2.1-0.2,4.2-0.2,6.2c0,3.2,0.2,6.4,0.6,9.6c0.1,0.5,0.1,1.1,0.2,1.6c0,0.5-0.1,0.7-0.4,0.7
		c-0.3,0-0.5-0.1-0.6-0.6c-0.1-0.7-0.2-1.4-0.3-2.1C15.9,106.5,15.7,103.2,15.6,99.9z"/>
	<path class="st0" d="M168.5,50.7c0.1,0.2,0.3,0.3,0.4,0.5c6.3,8.9,10.7,18.6,13.2,29.2c0.9,3.7,1.5,7.4,1.9,11.1
		c0.4,3.7,0.5,7.4,0.4,11.1c-0.1,3.1-0.4,6.2-0.8,9.3c0,0.2-0.1,0.5-0.3,0.6c-0.1,0.1-0.4,0.1-0.6,0c-0.1-0.1-0.2-0.3-0.2-0.5
		c0-0.6,0.1-1.2,0.2-1.8c0.5-3.7,0.7-7.4,0.6-11.2c0-2-0.1-4-0.3-6c-1.3-14.9-6.2-28.5-14.7-40.8c-0.1-0.1-0.2-0.3-0.3-0.4
		C167.7,51.2,167.8,50.9,168.5,50.7z"/>
	<path class="st0" d="M122.9,185.9c-0.7,0.2-1.4,0.4-2,0.6c-0.6,0.2-1.1,0.4-1.6,0.9c-0.3,0.3-0.5,0.6-0.3,1
		c0.2,0.4,0.5,0.6,0.9,0.5c0.3,0,0.7-0.1,1-0.2c0.7-0.4,1.5-0.8,2.3-1.2c0.3,0.2,0.6,0.4,1,0.7c-0.2,0.2-0.4,0.4-0.6,0.5
		c-0.8,0.3-1.5,0.7-2.3,0.9c-1.1,0.3-2.8-0.4-3.4-1.4c-0.3-0.5-0.3-1,0-1.5c0.4-0.5,1-0.9,1.6-1.1c0.6-0.2,1.3-0.3,1.9-0.6
		c0.4-0.1,0.7-0.1,1,0.3C122.5,185.6,122.7,185.7,122.9,185.9z"/>
	<path class="st0" d="M135,181.3c0.6-0.6,1.2-1.1,2.2-1.1c1.7,0.1,3.5,0,5.2-0.1c0.2,0,0.4,0,0.7,0c-0.2,0.9-0.2,0.9-0.9,0.9
		c-1.5,0-3-0.1-4.5-0.1c-0.3,0-0.6,0-0.8,0.2c-0.4,0.5-0.8,0.5-1.4,0.3C135.4,181.4,135.2,181.4,135,181.3z"/>
	<path class="st0" d="M170.9,154c-0.8,0-1.4-0.7-1.4-1.5c0-0.6,0.5-1.1,1.2-1c0.8,0,1.4,0.7,1.4,1.5C172,153.6,171.5,154,170.9,154z
		"/>
	<path class="st0" d="M167.6,150.7c-0.7,0-1.3-0.6-1.3-1.4c0-0.6,0.5-1.2,1.2-1.2c0.8,0,1.4,0.6,1.3,1.4
		C168.8,150.3,168.3,150.7,167.6,150.7z"/>
	<path class="st0" d="M19.3,129.2c0.6-0.3,1.1-0.6,1.7-0.9c0.2-0.1,0.4,0,0.6,0c0.4,0,0.9,0,1.3,0C22.2,129.7,20.8,130.1,19.3,129.2
		z"/>
	<path class="st0" d="M164.4,49.5c0.4-0.5,0.8-1,1.2-1.5c0.1-0.1,0.1-0.1,0.2-0.1c0.5-0.2,1-0.4,1.6-0.7
		C167.3,48.9,166.2,49.7,164.4,49.5z"/>
	<path class="st0" d="M32.2,47.2c0.6,0.3,1.1,0.5,1.7,0.7c0,0,0.1,0,0.1,0.1c0.4,0.5,0.8,1,1.2,1.5C33.5,49.8,32.4,49,32.2,47.2z"/>
	<path class="st0" d="M180.7,129.2c-1.5,0.9-2.7,0.6-3.6-0.9C178.5,128,179.6,128.4,180.7,129.2z"/>
	<path class="st0" d="M113.6,90.1c0.7-0.3,1-0.8,1.3-1.3c0.3-0.5,0.6-0.9,0.8-1.4c0.8-1.8,1.6-3.6,2.2-5.6c0.1-0.5,0.4-0.9,0.8-1.1
		c0.6-0.4,1.1-0.6,1.8-0.7c0.4-0.1,0.8-0.2,1.1-0.2c0.6-0.1,1-0.4,1.4-0.9c0.3-0.4,0.7-0.7,1.3-0.7c0.1,0.5,0.1,0.9-0.1,1.3
		c-0.5,1.1-1.2,2.1-1.9,3c-0.4,0.5-0.9,0.9-1.5,1.1c-1.1,0.4-1.8,1.3-2.1,2.3c-0.4,1.1-0.6,2.3-0.9,3.5c-0.2,0.8-0.4,1.6-0.7,2.3
		c-0.2,0.7-0.6,1.3-1.1,1.8c-0.7,0.7-1.2,1.6-1.7,2.5c-0.4,0.8-1,1.5-1.4,2.2c-0.1,0.2-0.2,0.4-0.2,0.7c0,5.1,0,10.2,0,15.4
		c0,2,0.1,4,0.1,6c0,0.8-0.2,1.6-0.2,2.4c0,0.4-0.2,0.5-0.5,0.7c-0.8,0.4-1.6,0.7-2.4,1.2c-0.7,0.4-1.3,0.8-1.9,1.3
		c-0.7,0.6-0.9,1.4-1,2.2c0,0.5,0,1,0,1.4c0,1.3-0.1,2.5-0.4,3.7c-0.4,1.9-0.7,3.9-1.1,5.9c-0.4,2.6-0.9,5.1-1.3,7.7
		c0,0.3-0.1,0.5,0,0.8c0.3,1.4,0.5,2.9,0.5,4.4c0,0.6,0,1.2,0,1.8c0,0.5-0.1,1-0.1,1.5c0,0.3-0.3,0.5-0.5,0.5
		c-0.9,0.3-1.8,0.6-2.8,0.8c-0.6,0.1-1.2,0.2-1.7,0.2c-0.9,0-1.9,0-2.8,0c-1.1,0-1.8-0.5-2.4-1.4c-0.5-0.8-0.7-1.8-0.8-2.7
		c0-0.2,0-0.5-0.1-0.7c-0.1-0.4-0.4-0.4-0.7-0.2c-0.1,0.1-0.2,0.2-0.3,0.3c-0.8,0.7-1.7,1.2-2.8,1.1c-0.8,0-1.5-0.6-1.6-1.4
		c-0.1-0.3,0-0.5,0.2-0.7c1.4-1.3,1.6-1.6,0.9-3.4c-0.4-1-0.5-2-0.6-3.1c-0.1-1.3-0.2-2.6-0.4-3.8c-0.2-1.4-0.3-2.8-0.2-4.3
		c0.1-1.7,0.1-3.5,0.5-5.2c0-0.2,0-0.4,0-0.5c0-1.1,0.1-2.1,0-3.2c-0.1-1.7,0.2-3.3,0.4-5c0.2-1.3,0.3-2.5,0.1-3.8
		c-0.1-0.4-0.2-0.7-0.6-1c-0.6-0.4-0.8-1-0.8-1.7c-0.1-0.9,0.1-1.9,0.3-2.7c0.2-0.7,0.5-1.4,0.7-2.1c0.3-0.9,0.4-1.9,0.3-2.8
		c-0.1-0.4-0.2-0.8-0.4-1.1c-1.3-2-2.6-3.9-3.8-5.9c-0.4-0.6-0.9-0.9-1.6-1c-1.2-0.2-1.6-1-1.9-2c-0.3-1.1,0-2.2,0.2-3.3
		c0.1-0.9,0.3-1.8,0.4-2.8c0.2-1.3-0.3-2.6-0.6-3.9c-0.3-1.1-0.7-2.3-0.9-3.4c-0.2-1-0.3-2.1-0.4-3.1c0-0.2,0-0.3,0-0.5
		c-0.2-1.3-0.2-1.3-1.4-1.8c-1.3-0.5-2.1-1.4-2.5-2.7c-0.4-1.5-0.7-3-0.9-4.6c-0.2-2-0.5-3.9-0.7-5.9c0-0.5,0-1,0.1-1.5
		c0.1-0.9,0-1.8-0.7-2.5c-0.8-0.9-1.5-1.9-2.4-2.8c-0.2-0.3-0.4-0.5-0.3-0.8c0-0.3,0-0.6,0-1c-0.1-0.5,0.1-0.9,0.3-1.4
		c0.2-0.3,0.4-0.4,0.7-0.1c0.2,0.2,0.3,0.4,0.5,0.6c0.4,0.4,0.5,0.5,1,0.2c0.4-0.2,0.6-0.1,0.8,0.2c0.7,1.1,1.4,2.1,2,3.2
		c0.5,0.8,0.6,1.8,0.4,2.7c-0.2,0.9-0.2,1.8,0,2.7c0.3,1.7,0.6,3.3,0.9,5c0.2,1.1,0.6,2.1,1.1,3.1c0.6,1.2,1.5,1.9,2.8,2.1
		c1.4,0.2,2.7,0.3,4.1,0.4c0.9,0.1,1.7,0.1,2.6,0c1.2,0,2.4,0.1,3.6,0.3c0.2,0,0.4,0.1,0.7,0.1c0.8,0,1.2-0.4,1.2-1.2
		c0-0.5,0.1-1-0.2-1.5c-0.2-0.4-0.1-0.8,0.2-1.1c0.5-0.6,0.6-1.3,0.6-2c0-0.3,0-0.6,0-1c-0.1-0.9,0.2-1.7,0.7-2.4
		c0.6-1,1.3-1.9,2.4-2.4c0.7-0.4,1.5-0.5,2.3-0.4c1.8,0.3,3.4,1.9,3.7,3.5c0.1,0.4,0.1,0.7,0.1,1.1c0,0.5,0.1,1,0.4,1.5
		c0.2,0.3,0.4,0.6,0.6,0.9c0.4,0.5,0.6,1,0.5,1.6c-0.1,0.8,0.2,1.4,0.9,1.8c0.4,0.2,0.7,0.5,1.1,0.8c0.5,0.3,0.7,0.8,0.8,1.4
		c0,0.6,0.3,1,0.9,1.1c0.4,0.1,0.7,0.3,1.1,0.4c0.3,0.1,0.4,0.3,0.5,0.6c0,0.5,0.1,0.9,0.1,1.4c0,0.4,0.2,0.7,0.5,0.9
		c0.8,0.4,1.1,1,1,1.8c-0.1,0.4,0,0.9-0.1,1.4c-0.2,1.6,0.5,2.9,1.3,4.1C113,89.6,113.3,89.8,113.6,90.1z"/>
	<path class="st0" d="M124,91.5c0,0-0.2,0-0.3,0c-0.3-0.1-0.4-0.2-0.5-0.5c0-0.3,0.2-0.5,0.4-0.6c0.3-0.1,0.5-0.1,0.8-0.1
		c2.2-0.2,4.5-0.4,6.7-0.6c2.7-0.3,5.3-0.5,8-0.8c3.1-0.3,6.3-0.6,9.4-0.9c2.4-0.2,4.8-0.5,7.2-0.7c1.4-0.1,2.8-0.2,4.1-0.4
		c1.5-0.1,3-0.3,4.5-0.4c0.6-0.1,1.2-0.1,1.8-0.2c0.2,0,0.4,0,0.5,0c0.3,0,0.5,0.2,0.5,0.5c0,0.3-0.1,0.5-0.4,0.6
		c-0.1,0-0.3,0.1-0.4,0.1c-1.3,0.1-2.6,0.2-3.9,0.3c-1.5,0.1-3,0.3-4.5,0.4c-1.8,0.2-3.7,0.3-5.5,0.5c-1.5,0.1-3,0.3-4.5,0.4
		c-1.8,0.2-3.7,0.3-5.5,0.5c-1.5,0.1-3,0.3-4.5,0.4c-1.9,0.2-3.7,0.3-5.6,0.5c-1.5,0.1-3,0.3-4.5,0.4
		C126.7,91.3,125.4,91.4,124,91.5z"/>
	<path class="st0" d="M35.6,82.2c0.8,0.1,1.8,0.3,2.7,0.5c3.8,0.7,7.7,1.4,11.5,2.1c5.3,1,10.7,1.9,16,2.9c2.7,0.5,5.3,1,8,1.4
		c0.2,0,0.4,0,0.6,0.1c0.1,0.1,0.3,0.4,0.3,0.6c0,0.1-0.2,0.3-0.3,0.4c-0.3,0.1-0.5,0.1-0.8,0c-3-0.5-6.1-1-9.1-1.6
		c-4.9-0.9-9.9-1.8-14.8-2.7c-4.6-0.8-9.2-1.7-13.8-2.5c-0.2,0-0.4-0.1-0.7-0.1c-0.4-0.1-0.6-0.4-0.6-0.7
		C34.8,82.3,35,82.2,35.6,82.2z"/>
	<path class="st0" d="M122.5,36.2c0,0.1-0.1,0.3-0.2,0.5c-2.6,7.2-5.2,14.3-7.8,21.5c-0.9,2.4-1.8,4.9-2.7,7.3
		c-0.1,0.3-0.2,0.5-0.4,0.8c-0.3,0.3-0.5,0.4-0.8,0.2c-0.3-0.2-0.4-0.4-0.2-0.8c1.1-2.9,2.1-5.8,3.2-8.7c2.5-6.8,5-13.7,7.5-20.5
		c0.1-0.2,0.1-0.4,0.3-0.6c0.2-0.3,0.5-0.5,0.8-0.4C122.4,35.5,122.6,35.8,122.5,36.2z"/>
	<path class="st0" d="M126,75c-0.2-0.1-0.4-0.2-0.5-0.4c-0.1-0.2,0-0.4,0-0.6c0-0.1,0.2-0.2,0.3-0.3c0.6-0.5,1.2-0.9,1.8-1.4
		c5.8-4.7,12-8.9,17.9-13.4c1.4-1,2.7-2,4.1-3c0.2-0.1,0.3-0.3,0.5-0.3c0.3-0.1,0.6-0.1,0.8,0.2c0.2,0.2,0.1,0.6-0.1,0.8
		c-0.2,0.2-0.4,0.3-0.6,0.5c-6.3,4.6-12.6,9.3-18.9,13.9c-1.6,1.2-3.2,2.5-4.8,3.7C126.5,74.7,126.3,74.8,126,75z"/>
	<path class="st0" d="M70.8,71.7c-0.1,0.1-0.2,0.3-0.3,0.4c-0.1,0.1-0.4,0-0.6,0c-0.1,0-0.3-0.2-0.4-0.3c-6.8-5-13.7-10.1-20.5-15.1
		c-0.1-0.1-0.3-0.2-0.4-0.3c-0.2-0.2-0.3-0.6-0.1-0.8c0.2-0.3,0.5-0.3,0.7-0.2c0.2,0.1,0.3,0.2,0.5,0.3c6.8,5.1,13.7,10.1,20.5,15.2
		C70.5,71.1,70.8,71.2,70.8,71.7z"/>
	<path class="st0" d="M83.9,33.9c0.3,0,0.5,0.3,0.6,0.6c0.3,1,0.6,1.9,0.9,2.9c2.2,7.3,4.3,14.5,6.5,21.8c0.1,0.2,0.1,0.3,0.1,0.5
		c0,0.3-0.1,0.5-0.3,0.6c-0.3,0.1-0.6,0-0.7-0.2c-0.1-0.2-0.1-0.3-0.2-0.5c-2.4-8.1-4.9-16.3-7.3-24.4c-0.1-0.2-0.1-0.4-0.1-0.6
		C83.3,34.2,83.6,33.9,83.9,33.9z"/>
	<path class="st0" d="M136.3,99.4c2.5,0,5.1,0,7.6,0c0.2,0,0.5,0,0.7,0c0.3,0.1,0.5,0.3,0.5,0.6c0,0.3-0.2,0.5-0.5,0.5
		c-0.2,0-0.4,0-0.5,0c-5.1,0-10.2,0-15.4,0c-0.2,0-0.4,0-0.5,0c-0.4-0.1-0.5-0.3-0.5-0.6c0-0.3,0.2-0.5,0.5-0.6c0.2,0,0.4,0,0.6,0
		C131.3,99.4,133.8,99.4,136.3,99.4z"/>
	<path class="st0" d="M40.7,67.7c0.3,0.1,0.5,0.2,0.7,0.2c2,0.8,4,1.6,6,2.4c0.1,0.1,0.3,0.1,0.4,0.2c0.3,0.2,0.3,0.5,0.2,0.7
		c-0.1,0.3-0.3,0.4-0.6,0.3c-0.2,0-0.3-0.1-0.5-0.2c-2-0.8-4-1.6-6-2.4c-0.2-0.1-0.3-0.1-0.5-0.2c-0.2-0.2-0.3-0.4-0.2-0.7
		C40.4,68,40.6,67.9,40.7,67.7z"/>
	<path class="st0" d="M158.7,70.7c0,0.3-0.2,0.5-0.5,0.6c-0.5,0.2-1,0.4-1.4,0.6c-1.6,0.6-3.2,1.3-4.8,1.9c-0.6,0.2-0.9,0.1-1.1-0.2
		c-0.2-0.4,0-0.7,0.6-0.9c2-0.8,4-1.6,6-2.4c0.1-0.1,0.3-0.1,0.5-0.1C158.3,70,158.7,70.3,158.7,70.7z"/>
	<path class="st0" d="M102.9,35.8c0,1,0,2.1,0,3.1c0,0.2,0,0.4,0,0.6c-0.1,0.3-0.3,0.5-0.6,0.5c-0.3,0-0.5-0.2-0.6-0.5
		c0-0.2,0-0.3,0-0.5c0-2.1,0-4.3,0-6.4c0-0.2,0-0.4,0.1-0.6c0.1-0.2,0.3-0.4,0.5-0.4c0.3,0,0.5,0.2,0.6,0.5c0,0.2,0,0.4,0,0.5
		C102.9,33.7,102.9,34.7,102.9,35.8C102.9,35.8,102.9,35.8,102.9,35.8z"/>
	<path class="st0" d="M138.2,79.2c-0.3,0-0.6-0.1-0.7-0.4c-0.1-0.3,0-0.5,0.2-0.7c0.1-0.1,0.3-0.1,0.4-0.2c2-0.8,4-1.6,6-2.4
		c0.1-0.1,0.3-0.1,0.4-0.1c0.3-0.1,0.6,0.1,0.7,0.4c0.1,0.3,0,0.5-0.3,0.7c-0.1,0.1-0.2,0.1-0.4,0.2c-2,0.8-4.1,1.6-6.1,2.4
		C138.4,79.1,138.2,79.1,138.2,79.2z"/>
	<path class="st0" d="M138.3,44.2c-0.1,0.2-0.2,0.4-0.3,0.5c-1.3,1.9-2.7,3.7-4,5.5c-0.1,0.1-0.1,0.2-0.2,0.2
		c-0.2,0.2-0.5,0.2-0.7,0c-0.3-0.2-0.3-0.4-0.2-0.7c0.1-0.2,0.2-0.3,0.3-0.5c1.2-1.7,2.5-3.4,3.7-5.2c0.1-0.2,0.2-0.4,0.4-0.4
		c0.2-0.1,0.4-0.1,0.6,0C138.1,43.8,138.2,44.1,138.3,44.2z"/>
	<path class="st0" d="M131.3,54.1c0,0.1-0.1,0.3-0.2,0.4c-1.3,1.8-2.7,3.7-4,5.5c-0.1,0.1-0.1,0.2-0.2,0.2c-0.2,0-0.5,0.1-0.7,0
		c-0.1-0.1-0.2-0.4-0.2-0.6c0-0.2,0.1-0.4,0.3-0.5c1.3-1.8,2.5-3.5,3.8-5.3c0.1-0.2,0.3-0.3,0.4-0.4
		C130.8,53.3,131.3,53.6,131.3,54.1z"/>
	<path class="st0" d="M70.2,48.1c-0.1-0.1-0.3-0.2-0.5-0.4c-0.4-0.5-0.8-1.1-1.1-1.6c-0.9-1.3-1.8-2.6-2.7-3.8
		c-0.3-0.5-0.4-0.9,0-1.1c0.3-0.2,0.7-0.1,1,0.4c1.3,1.8,2.5,3.6,3.8,5.5c0.1,0.1,0.2,0.2,0.2,0.3C71.1,47.7,70.7,48.1,70.2,48.1z"
		/>
	<path class="st0" d="M54.2,73.2c0.1,0,0.3,0.1,0.5,0.2c2,0.8,3.9,1.6,5.9,2.4c0.1,0.1,0.3,0.1,0.4,0.2c0.3,0.2,0.4,0.5,0.3,0.8
		c-0.1,0.3-0.4,0.4-0.7,0.3c-0.1,0-0.2-0.1-0.3-0.1c-2-0.8-4-1.6-6-2.4c-0.1-0.1-0.3-0.1-0.4-0.2c-0.2-0.2-0.4-0.4-0.2-0.7
		C53.7,73.3,53.9,73.1,54.2,73.2z"/>
	<path class="st0" d="M154.1,100.7c-1.1,0-2.2,0-3.3,0c-0.7,0-1-0.2-1-0.6c0-0.4,0.3-0.6,0.9-0.6c2.2,0,4.3,0,6.5,0
		c0.2,0,0.4,0,0.5,0.1c0.3,0.1,0.4,0.3,0.4,0.6c0,0.3-0.2,0.5-0.5,0.6c-0.2,0-0.4,0-0.5,0C156.2,100.7,155.2,100.7,154.1,100.7z"/>
	<path class="st0" d="M62.9,100.7c-1,0-2.1,0-3.1,0c-0.2,0-0.4,0-0.5,0c-0.3,0-0.5-0.2-0.5-0.5c0-0.3,0.2-0.5,0.4-0.6
		c0.2-0.1,0.4,0,0.5,0c2.1,0,4.3,0,6.4,0c0.2,0,0.4,0,0.5,0c0.3,0.1,0.5,0.3,0.4,0.6c0,0.3-0.2,0.5-0.5,0.5c-0.2,0-0.4,0-0.5,0
		C65,100.7,63.9,100.7,62.9,100.7z"/>
	<path class="st0" d="M36,100.7c-1,0-2.1,0-3.1,0c-0.2,0-0.4,0-0.5,0c-0.3,0-0.5-0.2-0.5-0.6c0-0.3,0.2-0.5,0.4-0.6
		c0.1,0,0.3,0,0.5,0c2.2,0,4.3,0,6.5,0c0.2,0,0.4,0,0.5,0.1c0.3,0.1,0.4,0.3,0.4,0.6c0,0.3-0.2,0.5-0.4,0.5c-0.2,0-0.4,0-0.6,0
		C38.1,100.7,37,100.7,36,100.7z"/>
	<path class="st0" d="M49.5,100.7c-1,0-2.1,0-3.1,0c-0.2,0-0.4,0-0.5,0c-0.3,0-0.5-0.2-0.5-0.5c0-0.3,0.2-0.5,0.4-0.6
		c0.2-0.1,0.4-0.1,0.5-0.1c2.1,0,4.3,0,6.4,0c0.2,0,0.4,0,0.5,0c0.3,0.1,0.5,0.3,0.4,0.6c0,0.3-0.2,0.5-0.5,0.6c-0.2,0-0.4,0-0.5,0
		C51.5,100.7,50.5,100.7,49.5,100.7z"/>
	<path class="st0" d="M102.8,49.4c0,1.1,0,2.2,0,3.3c0,0.6-0.2,0.9-0.6,0.9c-0.4,0-0.7-0.3-0.6-0.9c0-2.2,0-4.4,0-6.6
		c0-0.1,0-0.3,0-0.4c0.1-0.3,0.3-0.4,0.6-0.4c0.3,0,0.5,0.2,0.5,0.4c0,0.2,0,0.4,0,0.5C102.8,47.3,102.8,48.4,102.8,49.4
		C102.8,49.4,102.8,49.4,102.8,49.4z"/>
	<path class="st0" d="M74.6,52.8c0.1,0,0.2,0.1,0.4,0.2c0.1,0.1,0.2,0.2,0.3,0.3c1.3,1.8,2.5,3.6,3.8,5.4c0.1,0.1,0.1,0.2,0.2,0.3
		c0.1,0.3,0,0.6-0.2,0.8c-0.3,0.1-0.5,0.1-0.7-0.1c-0.1-0.1-0.2-0.2-0.3-0.4c-1.2-1.7-2.4-3.4-3.6-5.2c-0.1-0.2-0.2-0.3-0.3-0.5
		C73.8,53.2,74.1,52.8,74.6,52.8z"/>
	<path class="st0" d="M124.8,84.5c-0.3,0-0.6-0.1-0.6-0.4c0-0.2,0.1-0.4,0.2-0.6c0.1-0.1,0.3-0.2,0.5-0.2c2-0.8,4-1.6,6-2.4
		c0.6-0.2,0.9-0.1,1.1,0.2c0.2,0.4,0,0.7-0.6,0.9c-2.1,0.8-4.1,1.6-6.2,2.4C125,84.4,124.9,84.4,124.8,84.5z"/>
	<path class="st0" d="M123.1,65.3c-0.1,0.2-0.2,0.4-0.3,0.5c-1.4,1.8-2.9,3.7-4.3,5.5c-0.1,0.1-0.1,0.2-0.2,0.2
		c-0.2,0.2-0.5,0.2-0.7-0.1c-0.1-0.2-0.2-0.4-0.2-0.6c0-0.1,0.2-0.3,0.3-0.4c1.4-1.8,2.8-3.5,4.2-5.3c0.1-0.1,0.2-0.3,0.3-0.3
		c0.2-0.1,0.4-0.1,0.6,0C122.9,65,123,65.2,123.1,65.3z"/>
	<path class="st0" d="M74,82.2c-0.1,0-0.2-0.1-0.4-0.1c-2.1-0.8-4.2-1.6-6.3-2.5c-0.1,0-0.3-0.1-0.4-0.2c-0.3-0.2-0.3-0.4-0.2-0.7
		c0.1-0.3,0.3-0.4,0.6-0.3c0.1,0,0.3,0.1,0.4,0.1c2.1,0.8,4.2,1.6,6.3,2.5c0.1,0,0.3,0.1,0.4,0.2c0.2,0.2,0.3,0.4,0.2,0.7
		C74.5,82.1,74.3,82.2,74,82.2z"/>
	<path class="st0" d="M82.7,64.6c0.1,0.1,0.3,0.3,0.4,0.4c1,1.4,1.9,2.7,2.9,4.1c0,0.1,0.1,0.1,0.1,0.2c0.2,0.3,0.2,0.6-0.1,0.7
		c-0.2,0.2-0.5,0.1-0.7-0.2c-0.4-0.5-0.7-1-1.1-1.5c-0.6-0.9-1.2-1.8-1.9-2.7c-0.1-0.1-0.2-0.3-0.3-0.5
		C82.1,64.9,82.3,64.6,82.7,64.6z"/>
	<path class="st0" d="M165.9,100.7c-0.6,0-1.2,0-1.8,0c-0.5,0-0.7-0.2-0.7-0.6c0-0.4,0.2-0.6,0.7-0.6c1.2,0,2.4,0,3.6,0
		c0.3,0,0.6,0.1,0.7,0.4c0.1,0.4-0.1,0.8-0.6,0.8C167.2,100.7,166.5,100.7,165.9,100.7C165.9,100.7,165.9,100.7,165.9,100.7z"/>
	<path class="st0" d="M135.3,79.9c0,0.3-0.3,0.6-0.6,0.6c-0.3,0-0.5-0.3-0.5-0.6c0-0.3,0.3-0.6,0.6-0.6
		C135,79.3,135.3,79.6,135.3,79.9z"/>
	<path class="st0" d="M102.3,42.2c0.3,0,0.6,0.3,0.6,0.6c0,0.3-0.3,0.6-0.7,0.5c-0.3,0-0.5-0.3-0.5-0.6
		C101.6,42.4,101.9,42.2,102.3,42.2z"/>
	<path class="st0" d="M148.6,74.6c0,0.3-0.3,0.6-0.6,0.6c-0.3,0-0.6-0.3-0.6-0.6c0-0.3,0.2-0.6,0.5-0.6
		C148.3,74,148.6,74.3,148.6,74.6z"/>
	<path class="st0" d="M51.4,72.4c0,0.3-0.3,0.6-0.6,0.6c-0.3,0-0.6-0.3-0.6-0.6c0-0.3,0.3-0.6,0.6-0.6
		C51.1,71.8,51.4,72.1,51.4,72.4z"/>
	<path class="st0" d="M161.3,100.1c0,0.4-0.2,0.6-0.6,0.6c-0.3,0-0.6-0.3-0.6-0.6c0-0.3,0.3-0.6,0.6-0.6
		C161,99.5,161.3,99.7,161.3,100.1z"/>
	<path class="st0" d="M146.9,99.5c0.3,0,0.6,0.3,0.6,0.6c0,0.3-0.2,0.6-0.5,0.6c-0.3,0-0.6-0.2-0.7-0.5
		C146.3,99.8,146.6,99.5,146.9,99.5z"/>
	<path class="st0" d="M42.4,100.7c-0.3,0-0.6-0.3-0.6-0.6c0-0.3,0.3-0.6,0.6-0.6c0.3,0,0.6,0.3,0.6,0.6
		C43.1,100.4,42.8,100.7,42.4,100.7z"/>
	<path class="st0" d="M161.3,69.5c0,0.3-0.3,0.6-0.6,0.6c-0.3,0-0.6-0.3-0.6-0.6c0-0.3,0.2-0.6,0.5-0.6
		C161,68.9,161.3,69.2,161.3,69.5z"/>
	<path class="st0" d="M132.1,51.3c0.3,0,0.6,0.3,0.6,0.6c0,0.3-0.3,0.6-0.6,0.6c-0.3,0-0.5-0.3-0.5-0.6
		C131.5,51.5,131.7,51.3,132.1,51.3z"/>
	<path class="st0" d="M64.1,77.2c0.3,0,0.6,0.3,0.6,0.6c0,0.3-0.2,0.5-0.6,0.6c-0.3,0-0.6-0.2-0.6-0.6
		C63.5,77.5,63.8,77.2,64.1,77.2z"/>
	<path class="st0" d="M56.7,100.1c0,0.3-0.3,0.6-0.7,0.5c-0.3,0-0.5-0.3-0.5-0.7c0-0.3,0.3-0.5,0.6-0.5
		C56.4,99.5,56.7,99.8,56.7,100.1z"/>
	<path class="st0" d="M102.2,57.2c-0.3,0-0.6-0.2-0.6-0.5c0-0.3,0.2-0.6,0.6-0.6c0.3,0,0.6,0.3,0.6,0.6
		C102.7,56.9,102.5,57.2,102.2,57.2z"/>
	<path class="st0" d="M81.3,62.2c0,0.3-0.3,0.6-0.6,0.6c-0.3,0-0.5-0.3-0.5-0.6c0-0.3,0.2-0.6,0.5-0.6C81,61.6,81.3,61.9,81.3,62.2z
		"/>
	<path class="st0" d="M125,62.7c0,0.3-0.3,0.6-0.6,0.6c-0.3,0-0.6-0.3-0.6-0.7c0-0.3,0.3-0.5,0.6-0.5C124.7,62.1,125,62.4,125,62.7z
		"/>
	<path class="st0" d="M73,50.5c0,0.3-0.3,0.6-0.6,0.6c-0.3,0-0.6-0.3-0.6-0.6c0-0.3,0.3-0.6,0.6-0.5C72.8,49.9,73,50.2,73,50.5z"/>
</g>
</svg>
