<?xml version="1.0" encoding="utf-8"?>
<!-- Generator: Adobe Illustrator 27.3.1, SVG Export Plug-In . SVG Version: 6.00 Build 0)  -->
<svg version="1.1" id="Layer_1" xmlns="http://www.w3.org/2000/svg" xmlns:xlink="http://www.w3.org/1999/xlink" x="0px" y="0px"
	 viewBox="0 0 100 100" style="enable-background:new 0 0 100 100;" xml:space="preserve">
<style type="text/css">
	.st0{fill:#064468;}
</style>
<g>
	<path class="st0" d="M82.7,9.7H57.3c-8.9,0-20.1,0-28.2,0c-0.3,0-0.5-0.1-0.6-0.2C26.4,7,22.3,5.9,19.1,7c-3.1,1.1-5,3.8-5,7.2
		c0,10.3,0.3,22.6,0.5,34.4c0.2,11.8,0.5,24,0.5,34.2c0,5.8,4.7,10.5,10.5,10.5c6.3,0,13.6,0,21.1,0c7.1,0,14.4,0,21.1,0l10.1,0
		c2,0,3.1-1.1,3.1-3.1c0-1.7,0-5.1,0-7.8v-1.8h1.6c2.1,0,3.2-1.1,3.2-3.2V12.9C85.8,10.8,84.7,9.7,82.7,9.7z M23.6,12.6
		c0.3,0.3,0.5,0.7,0.6,1.2l0.1,0.3c0,0,0,0.2,0,0.3c0,0.1,0,0.2,0,0.3v57.2h-4.6l0-57.6c0-0.9,0.3-1.4,1-1.8
		C21.5,12.1,23.2,12.2,23.6,12.6z M20.8,79.4c0.2-1.6,0.9-2,1.5-2.1c0.1,0,0.2,0,0.3,0c0.7,0,1.4,0.5,1.7,1.4c0.6,1.4,1.5,2,3,2
		l46.1,0v7.1l-47.4,0c-1.4,0-2.7-0.6-3.6-1.8C21,84.4,20.4,82,20.8,79.4z M80.2,15.4V75H30V15.4H80.2z"/>
	<path class="st0" d="M40.7,50.6l10.9,0l19.8,0c2,0,3.1-1.2,3.1-3.1c0-7.5,0-15,0-22.5c0-2-1.2-3.1-3.1-3.1c-10.3,0-20.6,0-30.8,0
		c-1.9,0-3.1,1.1-3.1,3.1c0,7.5,0,15,0,22.5C37.6,49.5,38.8,50.6,40.7,50.6z M43.3,44.9V27.6H69v17.4H43.3z"/>
	<path class="st0" d="M40.6,59.8c3.7,0,7.5,0,11.2,0l8.1,0c3.9,0,7.8,0,11.7,0c0,0,0,0,0,0c1,0,1.7-0.3,2.3-0.9c0.8-0.9,1-2,0.5-3
		c-0.5-1.1-1.5-1.7-2.7-1.7c0,0,0,0,0,0c-7,0-14,0-21,0l-7.6,0c-0.8,0-1.7,0-2.5,0c-1.2,0-2.1,0.6-2.6,1.7c-0.4,0.9-0.3,1.8,0.2,2.6
		C38.6,59.4,39.5,59.8,40.6,59.8z"/>
	<path class="st0" d="M71.5,63.5l-11.5,0l-19.2,0c-1.9,0-3.1,1.1-3.1,2.8c0,0.8,0.3,1.4,0.8,2c0.6,0.6,1.4,0.9,2.3,0.9h30.8
		c0.9,0,1.8-0.3,2.3-0.9c0.5-0.5,0.8-1.2,0.8-1.9C74.6,64.6,73.3,63.5,71.5,63.5z"/>
</g>
</svg>
