<?xml version="1.0" encoding="utf-8"?>
<!-- Generator: Adobe Illustrator 27.3.1, SVG Export Plug-In . SVG Version: 6.00 Build 0)  -->
<svg version="1.1" id="Layer_1" xmlns="http://www.w3.org/2000/svg" xmlns:xlink="http://www.w3.org/1999/xlink" x="0px" y="0px"
	 viewBox="0 0 100 100" style="enable-background:new 0 0 100 100;" xml:space="preserve">
<style type="text/css">
	.st0{fill:#084368;}
</style>
<g>
	<path class="st0" d="M90.2,60.6c0-0.9-0.1-1.8-0.3-2.6C88.5,51.5,83,47,76.3,47l-18.1,0l-8.1,0l-6,0c-6.8,0-13.7,0-20.5,0
		c-1.1,0-2,0.1-2.8,0.3c-6.6,1.4-11,6.9-11,13.7l0,2.8c0,5.9,0,11.9,0,17.8c0,0.7,0.1,1.5,0.2,2.3c0.9,6.6,6.7,11.7,13.4,11.7
		c8.9,0,17.8,0,26.6,0s17.8,0,26.6,0c7.3,0,13.6-6.2,13.6-13.6C90.2,74.9,90.2,67.8,90.2,60.6z M83.9,61.2c0,6.8,0,13.5,0,20.3
		c0,4.7-3.2,7.9-7.8,7.9c-17.4,0-34.8,0-52.1,0c-4.7,0-7.9-3.2-7.9-7.9c0-6.8,0-13.6,0-20.4c0-4.6,3.2-7.8,7.8-7.8
		c3.6,0,7.3,0,10.9,0c2.5,0,5.1,0,7.6,0l7.6,0l8,0l18,0C80.7,53.3,83.9,56.5,83.9,61.2z"/>
	<path class="st0" d="M34.4,37.1l12.5,0v0.5c0,2.1,0.3,3.3,1.1,4c0.5,0.5,1.2,0.7,2,0.7c0,0,0,0,0,0c2.8,0,3.1-2.5,3.1-4.7v-0.5
		l3.3,0c3.1,0,6.2,0,9.3,0c1.9,0,3.2-1.3,3.3-3.1c0-1.8-1.2-3.1-3.1-3.2c-1.4-0.1-2.2-1-2.2-2.3c0-1.5,0-3,0-4.5c0-1.8,0-3.6,0-5.5
		c0-0.8-0.1-1.6-0.2-2.4C62.8,9.8,57.2,4.6,50.8,4.3c-3.9-0.2-7.6,1.2-10.3,3.8c-2.7,2.6-4.3,6.2-4.3,10.2l0,3.5c0,2.2,0,4.5,0,6.7
		c0,1.3-0.8,2.2-2.1,2.3c-1.9,0.1-3.2,1.5-3.2,3.3C31,35.8,32.5,37.1,34.4,37.1z M42.6,22.6c0-1.6,0-3.3,0-4.9
		c0.1-3.7,3.1-6.8,6.9-7.1c3.8-0.3,7.2,2.4,7.9,6.1c0.1,0.6,0.1,1.1,0.2,1.7c0,1.1,0,2.3,0,3.4c0,1.4,0,2.8,0,4.2
		c0,1.2,0.1,2.4,0.1,3.7l0,1.2H42.3C42.6,28,42.6,25.3,42.6,22.6z"/>
	<path class="st0" d="M77,30.7c-1.1-1-2.6-0.9-3.6,0.1c-1,1-1.1,2.5-0.1,3.6c1.3,1.4,2.6,2.7,4,4c0.8,0.8,1.9,0.8,2.9,0.3
		c0.9-0.5,1.4-1.3,1.6-2.4c-0.3-0.6-0.4-1.2-0.8-1.7C79.7,33.3,78.3,32,77,30.7z"/>
	<path class="st0" d="M76.9,16c1.4-1.3,2.8-2.7,4.1-4.1c0.8-0.8,0.8-1.9,0.3-2.9c-0.5-0.9-1.3-1.4-2.4-1.6c-0.5,0.3-1.2,0.4-1.6,0.8
		c-1.4,1.3-2.8,2.6-4,4c-0.9,1-0.8,2.5,0.1,3.5C74.3,16.8,75.8,17,76.9,16z"/>
	<path class="st0" d="M76.6,20.7c-1.6,0-2.7,1.2-2.7,2.6c0,1.5,1.2,2.6,2.7,2.7c1.7,0,3.5,0,5.2,0c1.5,0,2.7-1.2,2.7-2.7
		c0-1.4-1.2-2.6-2.7-2.6c-0.9,0-1.8,0-2.6,0C78.3,20.7,77.4,20.7,76.6,20.7z"/>
	<path class="st0" d="M18.1,26c0.9,0,1.8,0,2.6,0c0.9,0,1.8,0,2.6,0c1.5,0,2.6-1.2,2.6-2.6c0-1.5-1.1-2.6-2.6-2.6
		c-1.8,0-3.5,0-5.3,0c-1.5,0-2.7,1.2-2.7,2.6C15.4,24.7,16.6,26,18.1,26z"/>
	<path class="st0" d="M23,16c0.8,0.7,1.8,0.9,2.8,0.4c1-0.5,1.5-1.3,1.7-2.4c-0.3-0.6-0.4-1.2-0.8-1.7c-1.3-1.4-2.6-2.7-4-4
		c-1-0.9-2.6-0.8-3.6,0.1c-1,1-1.1,2.5-0.1,3.6C20.2,13.3,21.6,14.7,23,16z"/>
	<path class="st0" d="M25.7,30.3c-1-0.4-2-0.3-2.8,0.5c-1.3,1.3-2.6,2.5-3.9,3.9c-1,1.1-1,2.7,0,3.7c1,1,2.6,1,3.7,0
		c1.3-1.3,2.6-2.5,3.8-3.9c0.4-0.4,0.6-1.1,0.8-1.7C27.3,31.6,26.7,30.7,25.7,30.3z"/>
	<path class="st0" d="M69.4,60.1c-1.9-0.3-3.8-0.1-5.7-0.2c-1.4,0-2.3,1-2.3,2.4c0,6,0,12.1,0,18.1c0,1.4,1,2.3,2.3,2.4
		c1.6,0,3.1,0,4.7,0c3.5-0.1,6.6-3.1,6.6-6.6c0-1.8-0.6-3.4-1.7-4.8c0.2-0.2,0.3-0.4,0.4-0.6C76.7,66.7,74.4,60.9,69.4,60.1z
		 M66,64.5c0.9,0,1.7-0.1,2.6,0c1.2,0.1,2,1.2,2,2.3c0,1.1-1,2.1-2.1,2.2c-0.8,0-1.6,0-2.4,0C66,67.5,66,66.1,66,64.5z M68.4,78.2
		c-0.8,0-1.6,0-2.4,0c0-1.5,0-3,0-4.6c0.8,0,1.6,0,2.3,0c1.2,0.1,2.2,1.1,2.2,2.3C70.5,77.1,69.6,78.1,68.4,78.2z"/>
	<path class="st0" d="M55.6,60.2c-1.5-0.8-3.3,0.3-3.3,2.1c0,4.5,0,8.9,0,13.4c0,1-0.4,1.8-1.3,2.3c-1.6,0.7-3.2-0.4-3.2-2.2
		c0-4.4,0-8.9,0-13.3c0-1.5-0.9-2.5-2.3-2.5c-1.4,0-2.3,1-2.3,2.5c0,4.4,0,8.9,0,13.3c0,3.9,3,7,6.8,7c3.8,0,6.8-3.1,6.9-6.9
		c0-2.2,0-4.4,0-6.5c0-2.3,0-4.6,0-6.9C56.8,61.4,56.4,60.6,55.6,60.2z"/>
	<path class="st0" d="M31.9,69.1c-1.8,0-2.9-1.6-2.3-3.2c0.6-1.5,2.4-1.8,3.7-0.7c1.1,0.9,2.5,0.9,3.3-0.1c0.8-1,0.7-2.3-0.3-3.3
		c-2.2-2.1-5.7-2.4-8.3-0.7c-2.7,1.7-3.8,5-2.8,8c0.9,2.7,3.4,4.6,6.3,4.6c1.8,0,2.9,1.5,2.3,3.1c-0.5,1.3-2.3,2.2-3.8,0.8
		c-1-0.9-2.4-0.8-3.3,0.2c-0.8,1-0.7,2.3,0.3,3.3c1.3,1.2,2.9,1.8,4.3,1.9c5.1,0,8.4-4.6,6.9-9C37.3,71,34.8,69.2,31.9,69.1z"/>
</g>
</svg>
